<?xml version="1.0" encoding="UTF-8" standalone="no"?>
<svg
   width="768"
   height="1440"
   version="1.1"
   id="svg6"
   xmlns="http://www.w3.org/2000/svg"
   xmlns:svg="http://www.w3.org/2000/svg">
  <defs
     id="defs10" />
  <path
     fill="#09f"
     d="M0 76.67l16-5.551c16-5.972 48-16.448 80-5.657 146.477 17.52 215.334 34.564 288 11.209 32-11.524 115.04-55.522 147.04-44.732C677.725 90.114 641.892 96.41 752 54.357l16-11.209V1440H0z"
     id="path2" />
  <path
     fill="#09f"
     fill-opacity=".5"
     d="M0 76.67h25.6c25.6 0 76.8 0 128-22.313C204.8 31.625 256-12.374 307.2 4.073 358.4 21.15 409.6 98.67 460.8 104.641c51.2 5.552 102.4-61.493 153.6-78.254 51.2-16.762 102.4 16.761 128 33.522L768 76.671V1440H0z"
     id="path4" />
</svg>
